<svg width="163" height="48" viewBox="0 0 163 48" fill="none" xmlns="http://www.w3.org/2000/svg">
<path d="M0 0H48.0295V48H0V0Z" fill="#ED1D24"/>
<path d="M41.1253 16.6999H31.3193V6.8999H16.7103V16.6999H6.9043V31.0999H16.7103V40.9999H31.3193V31.1999H41.1253" fill="white"/>
<path d="M71.543 13.0999H66.3398L64.8389 19.4999H58.1348L63.0378 0.399902H74.9451C78.9475 0.399902 81.8493 2.6999 81.8493 5.5999C81.6492 10.6999 76.9463 13.0999 71.543 13.0999ZM71.0427 3.9999H68.7413L67.2404 9.5999H69.0415C72.0433 9.5999 74.845 9.0999 74.845 6.0999C74.845 4.5999 72.7437 3.9999 71.0427 3.9999ZM99.1599 15.2999C98.6596 17.3999 98.5596 18.6999 98.4595 19.4999H91.9555C92.0556 18.7999 92.4558 17.5999 92.5559 16.3999C91.055 18.2999 89.2539 19.7999 86.0519 19.7999C82.1495 19.7999 80.4485 17.8999 80.4485 15.1999C80.4485 8.1999 88.3533 4.7999 94.9574 4.7999C97.3588 4.7999 100.461 5.1999 101.762 5.4999L99.1599 15.2999ZM93.6566 8.0999C90.4546 8.0999 87.1526 10.7999 87.1526 14.5999C87.1526 15.6999 87.6529 16.4999 89.0537 16.4999C91.2551 16.4999 92.9561 13.9999 93.8567 10.7999L94.5571 8.2999C94.357 8.0999 94.0568 8.0999 93.6566 8.0999ZM120.073 17.0999C118.372 23.5999 115.47 25.9999 106.965 25.9999C104.263 25.9999 101.661 25.5999 100.261 25.1999L101.461 21.6999C103.363 22.4999 105.064 22.6999 106.665 22.6999C111.067 22.6999 112.568 20.9999 113.269 18.4999L113.769 16.9999C112.168 18.7999 110.267 19.4999 107.465 19.4999C103.563 19.4999 101.762 17.6999 101.762 15.0999C101.762 7.9999 109.967 4.6999 116.471 4.6999C118.672 4.6999 121.674 5.0999 122.975 5.3999L120.073 17.0999ZM115.17 8.0999C112.068 8.0999 108.566 10.7999 108.566 14.5999C108.566 15.6999 108.966 16.4999 110.367 16.4999C112.868 16.4999 114.569 13.3999 115.27 10.7999L115.97 8.1999C115.67 8.0999 115.47 8.0999 115.17 8.0999ZM140.785 16.3999C140.485 17.3999 140.285 18.4999 140.185 19.4999H134.181L134.682 16.9999C133.181 18.4999 131.28 19.7999 128.378 19.7999C125.576 19.7999 123.575 18.7999 123.575 16.2999C123.575 15.7999 123.575 15.2999 123.775 14.7999L126.277 4.9999H132.681L130.479 13.6999C130.379 14.1999 130.279 14.5999 130.279 14.9999C130.279 15.8999 130.779 16.4999 131.98 16.4999C133.981 16.4999 134.882 14.9999 135.282 13.4999L137.483 4.9999H143.887L140.785 16.3999ZM150.591 13.6999C150.491 13.9999 150.491 14.2999 150.491 14.4999C150.491 16.2999 152.493 16.8999 154.394 16.8999C156.395 16.8999 158.496 16.2999 160.097 15.3999L159.597 18.4999C157.296 19.3999 155.094 19.7999 152.192 19.7999C148.19 19.7999 143.887 18.5999 143.887 14.7999C143.887 8.8999 149.191 4.7999 155.895 4.7999C158.997 4.7999 162.899 5.5999 162.899 8.5999C162.899 12.9999 154.694 13.7999 150.591 13.6999ZM155.595 7.5999C153.293 7.5999 151.792 9.4999 151.092 11.0999C153.693 11.0999 157.396 10.5999 157.396 8.7999C157.296 7.9999 156.595 7.5999 155.595 7.5999ZM85.9518 47.1999H80.0482L83.8505 32.2999L74.6449 47.1999H69.2416L67.6406 32.2999L63.8383 47.1999H58.3349L63.0378 29.0999H72.5436L73.6443 41.4999L81.1489 29.1999H90.7548L85.9518 47.1999ZM96.4583 41.6999C96.2582 41.9999 96.2582 42.2999 96.2582 42.4999C96.2582 44.1999 98.1593 44.6999 99.9604 44.6999C101.862 44.6999 103.863 44.0999 105.364 43.2999L104.964 46.1999C102.762 47.0999 100.661 47.2999 97.9592 47.2999C94.1569 47.2999 90.1544 46.1999 90.1544 42.5999C90.1544 36.9999 95.1575 33.0999 101.561 33.0999C104.463 33.0999 108.165 33.7999 108.165 36.5999C108.065 40.9999 100.461 41.6999 96.4583 41.6999ZM101.161 35.9999C98.9598 35.9999 97.559 37.7999 96.8585 39.3999C99.3601 39.3999 102.762 38.8999 102.762 37.1999C102.762 36.2999 102.062 35.9999 101.161 35.9999ZM126.677 37.9999L124.375 47.1999H118.372L120.473 38.9999C120.573 38.5999 120.773 38.0999 120.773 37.7999C120.773 36.9999 120.373 36.3999 119.172 36.3999C117.271 36.3999 116.37 37.8999 116.07 39.1999L113.969 47.0999H107.965L110.767 36.3999C111.067 35.4999 111.267 34.3999 111.367 33.4999H117.071L116.571 35.8999C118.172 33.9999 119.773 33.1999 122.474 33.1999C125.076 33.1999 127.177 34.0999 127.177 36.4999C126.777 36.9999 126.777 37.4999 126.677 37.9999ZM135.482 47.4999C131.68 47.4999 127.777 46.0999 127.777 42.4999C127.777 36.8999 132.48 33.2999 139.084 33.2999C142.887 33.2999 146.789 34.5999 146.789 38.2999C146.889 43.8999 142.286 47.4999 135.482 47.4999ZM138.384 36.4999C135.582 36.4999 134.382 40.3999 134.382 42.2999C134.382 43.4999 134.882 44.4999 136.583 44.4999C139.385 44.4999 140.685 40.5999 140.685 38.6999C140.485 37.3999 139.885 36.4999 138.384 36.4999ZM161.798 36.7999C160.398 36.2999 158.897 35.9999 157.296 35.9999C156.295 35.9999 154.294 36.1999 154.294 37.2999C154.294 39.0999 161.698 38.8999 161.698 42.4999C161.698 46.4999 156.495 47.4999 152.593 47.4999C150.491 47.4999 148.59 47.1999 146.689 46.7999L147.79 43.5999C149.291 44.2999 150.792 44.5999 152.493 44.5999C153.593 44.5999 155.895 44.2999 155.895 43.0999C155.895 41.3999 148.69 41.5999 148.69 37.7999C148.69 33.9999 154.094 33.0999 157.696 33.0999C159.397 33.0999 161.298 33.3999 162.999 33.7999L161.798 36.7999Z" fill="#0054A6"/>
</svg>
