<svg width="14" height="9" viewBox="0 0 14 9" fill="none" xmlns="http://www.w3.org/2000/svg">
<path fill-rule="evenodd" clip-rule="evenodd" d="M0 4.5C0 4.36741 0.052675 4.24025 0.146437 4.1465C0.240199 4.05274 0.367368 4.00007 0.499968 4.00007H12.2922L9.14542 0.854512C9.05154 0.760638 8.99879 0.633318 8.99879 0.500561C8.99879 0.367804 9.05154 0.240484 9.14542 0.146611C9.2393 0.0527374 9.36663 3.12787e-09 9.49939 0C9.63216 -3.12786e-09 9.75949 0.0527375 9.85337 0.146611L13.8531 4.14605C13.8997 4.19249 13.9366 4.24766 13.9618 4.30839C13.987 4.36913 14 4.43424 14 4.5C14 4.56576 13.987 4.63087 13.9618 4.69161C13.9366 4.75234 13.8997 4.80751 13.8531 4.85395L9.85337 8.85339C9.75949 8.94726 9.63216 9 9.49939 9C9.36663 9 9.2393 8.94726 9.14542 8.85339C9.05154 8.75952 8.99879 8.6322 8.99879 8.49944C8.99879 8.36668 9.05154 8.23936 9.14542 8.14549L12.2922 4.99993H0.499968C0.367368 4.99993 0.240199 4.94726 0.146437 4.8535C0.052675 4.75975 0 4.63259 0 4.5V4.5Z" fill="white"/>
</svg>
