<svg width="22" height="22" viewBox="0 0 22 22" fill="none" xmlns="http://www.w3.org/2000/svg">
<path d="M20.785 0.625H1.465C1.00037 0.625 0.625 1.00037 0.625 1.465V20.785C0.625 21.2496 1.00037 21.625 1.465 21.625H20.785C21.2496 21.625 21.625 21.2496 21.625 20.785V1.465C21.625 1.00037 21.2496 0.625 20.785 0.625ZM15.9419 7.28463L10.4136 14.9496C10.3364 15.0575 10.2345 15.1453 10.1165 15.206C9.99849 15.2666 9.86773 15.2982 9.73506 15.2982C9.6024 15.2982 9.47164 15.2666 9.35363 15.206C9.23562 15.1453 9.13377 15.0575 9.0565 14.9496L5.78312 10.4136C5.68337 10.2745 5.78312 10.0803 5.95375 10.0803H7.18487C7.45262 10.0803 7.70725 10.2089 7.86475 10.4294L9.73375 13.0229L13.8602 7.30037C14.0177 7.0825 14.2697 6.95125 14.5401 6.95125H15.7712C15.9419 6.95125 16.0416 7.1455 15.9419 7.28463V7.28463Z" fill="#4F4F4F"/>
</svg>
