<svg width="21" height="21" viewBox="0 0 21 21" fill="none" xmlns="http://www.w3.org/2000/svg">
<path d="M10.5 0C4.70156 0 0 4.70156 0 10.5C0 16.2984 4.70156 21 10.5 21C16.2984 21 21 16.2984 21 10.5C21 4.70156 16.2984 0 10.5 0ZM11.25 15.5625C11.25 15.6656 11.1656 15.75 11.0625 15.75H9.9375C9.83438 15.75 9.75 15.6656 9.75 15.5625V9.1875C9.75 9.08438 9.83438 9 9.9375 9H11.0625C11.1656 9 11.25 9.08438 11.25 9.1875V15.5625ZM10.5 7.5C10.2056 7.49399 9.9253 7.37282 9.71923 7.1625C9.51315 6.95218 9.39773 6.66945 9.39773 6.375C9.39773 6.08055 9.51315 5.79782 9.71923 5.5875C9.9253 5.37718 10.2056 5.25601 10.5 5.25C10.7944 5.25601 11.0747 5.37718 11.2808 5.5875C11.4868 5.79782 11.6023 6.08055 11.6023 6.375C11.6023 6.66945 11.4868 6.95218 11.2808 7.1625C11.0747 7.37282 10.7944 7.49399 10.5 7.5Z" fill="#4F4F4F"/>
</svg>
