<svg width="21" height="21" viewBox="0 0 21 21" fill="none" xmlns="http://www.w3.org/2000/svg">
<path d="M17.5 9.62412H19.25C19.25 5.13537 15.8611 1.75 11.3662 1.75V3.5C14.9205 3.5 17.5 6.07512 17.5 9.62412Z" fill="#4F4F4F"/>
<path d="M11.375 7C13.2151 7 14 7.78487 14 9.625H15.75C15.75 6.80312 14.1969 5.25 11.375 5.25V7ZM14.3693 11.7626C14.2011 11.6098 13.9802 11.5283 13.7531 11.5353C13.526 11.5423 13.3105 11.6373 13.1521 11.8002L11.0583 13.9536C10.5543 13.8574 9.541 13.5415 8.498 12.5011C7.455 11.4572 7.13913 10.4414 7.0455 9.94087L9.19713 7.84612C9.36024 7.68786 9.45537 7.47234 9.46239 7.24518C9.46942 7.01801 9.38778 6.79703 9.23475 6.629L6.00163 3.07387C5.84854 2.90531 5.63577 2.80306 5.40851 2.78885C5.18125 2.77463 4.9574 2.84957 4.7845 2.99775L2.88575 4.62612C2.73447 4.77795 2.64418 4.98001 2.632 5.194C2.61888 5.41275 2.36863 10.5945 6.38663 14.6142C9.89188 18.1186 14.2826 18.375 15.4919 18.375C15.6686 18.375 15.7771 18.3697 15.806 18.368C16.02 18.356 16.2219 18.2653 16.373 18.1134L18.0005 16.2137C18.1488 16.041 18.2239 15.8172 18.2098 15.5899C18.1958 15.3627 18.0937 15.1498 17.9253 14.9966L14.3693 11.7626V11.7626Z" fill="#4F4F4F"/>
</svg>
